# xmcd
#
# Track frame offsets: 
#        150
#        56275
#        112540
#        155877
#        207672
#        246017
#
# Disc length: 3860 seconds
#
# Revision: 0
# Processed by: cddbd v1.5.2PL0 Copyright (c) Steve Scherf et al.
# Submitted via: ExactAudioCopy v1.0b1
#
DISCID=490f1206
DTITLE=Randers Chamber Orchestra - Jorgen Bentzon: Racconti
DYEAR=1998
DGENRE=Chamber Music
TTITLE0=Racconto, no. 1, flute, saxophone, bassoon and double bass     O
TTITLE0=p. 25
TTITLE1=Racconto, no. 2, flute, violin, viola and cello     Op. 30
TTITLE2=Racconto, no. 3, flute, clarinet and bassoon     Op. 31
TTITLE3=Racconto, no. 4, violin, cor anglais and piano     Op. 45
TTITLE4=Racconto, no. 5, flute, oboe, clarinet, bassoon and French horn 
TTITLE4=Op. 46
TTITLE5=Racconto, no. 6, violins (2), viola and cello     Op. 49
EXTD=
EXTT0=
EXTT1=
EXTT2=
EXTT3=
EXTT4=
EXTT5=
PLAYORDER=
